<mxfile host="app.diagrams.net" modified="2023-02-17T06:40:03.921Z" agent="5.0 (Windows NT 10.0; Win64; x64) AppleWebKit/537.36 (KHTML, like Gecko) Chrome/110.0.0.0 Safari/537.36 Edg/110.0.1587.41" etag="UCZLcrebo1XD0pRdy_pU" version="20.8.18" type="github">
  <diagram name="第 1 页" id="lVDsGfpW_0IMr33LY62K">
    <mxGraphModel dx="383" dy="388" grid="1" gridSize="10" guides="1" tooltips="1" connect="1" arrows="1" fold="1" page="1" pageScale="1" pageWidth="827" pageHeight="1169" math="0" shadow="0">
      <root>
        <mxCell id="0" />
        <mxCell id="1" parent="0" />
        <mxCell id="G-p-I15hFAaldeLtPEmq-47" style="edgeStyle=none;rounded=0;orthogonalLoop=1;jettySize=auto;html=1;exitX=1;exitY=0.5;exitDx=0;exitDy=0;entryX=0;entryY=0.5;entryDx=0;entryDy=0;" edge="1" parent="1" source="G-p-I15hFAaldeLtPEmq-1" target="G-p-I15hFAaldeLtPEmq-45">
          <mxGeometry relative="1" as="geometry" />
        </mxCell>
        <mxCell id="G-p-I15hFAaldeLtPEmq-48" style="edgeStyle=none;rounded=0;orthogonalLoop=1;jettySize=auto;html=1;exitX=1;exitY=0.5;exitDx=0;exitDy=0;entryX=0;entryY=0.5;entryDx=0;entryDy=0;" edge="1" parent="1" source="G-p-I15hFAaldeLtPEmq-1" target="G-p-I15hFAaldeLtPEmq-44">
          <mxGeometry relative="1" as="geometry" />
        </mxCell>
        <mxCell id="G-p-I15hFAaldeLtPEmq-49" style="edgeStyle=none;rounded=0;orthogonalLoop=1;jettySize=auto;html=1;exitX=1;exitY=0.5;exitDx=0;exitDy=0;entryX=0;entryY=0.5;entryDx=0;entryDy=0;" edge="1" parent="1" source="G-p-I15hFAaldeLtPEmq-1" target="G-p-I15hFAaldeLtPEmq-31">
          <mxGeometry relative="1" as="geometry" />
        </mxCell>
        <mxCell id="G-p-I15hFAaldeLtPEmq-50" style="edgeStyle=none;rounded=0;orthogonalLoop=1;jettySize=auto;html=1;exitX=1;exitY=0.5;exitDx=0;exitDy=0;entryX=0;entryY=0.5;entryDx=0;entryDy=0;" edge="1" parent="1" source="G-p-I15hFAaldeLtPEmq-1" target="G-p-I15hFAaldeLtPEmq-34">
          <mxGeometry relative="1" as="geometry" />
        </mxCell>
        <mxCell id="G-p-I15hFAaldeLtPEmq-52" style="edgeStyle=none;rounded=0;orthogonalLoop=1;jettySize=auto;html=1;exitX=1;exitY=0.5;exitDx=0;exitDy=0;entryX=0;entryY=0.5;entryDx=0;entryDy=0;" edge="1" parent="1" source="G-p-I15hFAaldeLtPEmq-1" target="G-p-I15hFAaldeLtPEmq-35">
          <mxGeometry relative="1" as="geometry" />
        </mxCell>
        <mxCell id="G-p-I15hFAaldeLtPEmq-53" style="edgeStyle=none;rounded=0;orthogonalLoop=1;jettySize=auto;html=1;exitX=1;exitY=0.5;exitDx=0;exitDy=0;entryX=0;entryY=0.5;entryDx=0;entryDy=0;" edge="1" parent="1" source="G-p-I15hFAaldeLtPEmq-1" target="G-p-I15hFAaldeLtPEmq-36">
          <mxGeometry relative="1" as="geometry" />
        </mxCell>
        <mxCell id="G-p-I15hFAaldeLtPEmq-54" style="edgeStyle=none;rounded=0;orthogonalLoop=1;jettySize=auto;html=1;exitX=1;exitY=0.5;exitDx=0;exitDy=0;entryX=0;entryY=0.5;entryDx=0;entryDy=0;" edge="1" parent="1" source="G-p-I15hFAaldeLtPEmq-1" target="G-p-I15hFAaldeLtPEmq-37">
          <mxGeometry relative="1" as="geometry" />
        </mxCell>
        <mxCell id="G-p-I15hFAaldeLtPEmq-55" style="edgeStyle=none;rounded=0;orthogonalLoop=1;jettySize=auto;html=1;exitX=1;exitY=0.5;exitDx=0;exitDy=0;entryX=0;entryY=0.5;entryDx=0;entryDy=0;" edge="1" parent="1" source="G-p-I15hFAaldeLtPEmq-1" target="G-p-I15hFAaldeLtPEmq-38">
          <mxGeometry relative="1" as="geometry" />
        </mxCell>
        <mxCell id="G-p-I15hFAaldeLtPEmq-56" style="edgeStyle=none;rounded=0;orthogonalLoop=1;jettySize=auto;html=1;exitX=1;exitY=0.5;exitDx=0;exitDy=0;entryX=0;entryY=0.5;entryDx=0;entryDy=0;" edge="1" parent="1" source="G-p-I15hFAaldeLtPEmq-1" target="G-p-I15hFAaldeLtPEmq-40">
          <mxGeometry relative="1" as="geometry" />
        </mxCell>
        <mxCell id="G-p-I15hFAaldeLtPEmq-57" style="edgeStyle=none;rounded=0;orthogonalLoop=1;jettySize=auto;html=1;exitX=1;exitY=0.5;exitDx=0;exitDy=0;entryX=0;entryY=0.5;entryDx=0;entryDy=0;" edge="1" parent="1" source="G-p-I15hFAaldeLtPEmq-1" target="G-p-I15hFAaldeLtPEmq-41">
          <mxGeometry relative="1" as="geometry" />
        </mxCell>
        <mxCell id="G-p-I15hFAaldeLtPEmq-58" style="edgeStyle=none;rounded=0;orthogonalLoop=1;jettySize=auto;html=1;exitX=1;exitY=0.5;exitDx=0;exitDy=0;entryX=0;entryY=0.5;entryDx=0;entryDy=0;" edge="1" parent="1" source="G-p-I15hFAaldeLtPEmq-1" target="G-p-I15hFAaldeLtPEmq-42">
          <mxGeometry relative="1" as="geometry" />
        </mxCell>
        <mxCell id="G-p-I15hFAaldeLtPEmq-59" style="edgeStyle=none;rounded=0;orthogonalLoop=1;jettySize=auto;html=1;exitX=1;exitY=0.5;exitDx=0;exitDy=0;entryX=0;entryY=0.5;entryDx=0;entryDy=0;" edge="1" parent="1" source="G-p-I15hFAaldeLtPEmq-1" target="G-p-I15hFAaldeLtPEmq-43">
          <mxGeometry relative="1" as="geometry" />
        </mxCell>
        <mxCell id="G-p-I15hFAaldeLtPEmq-1" value="管理员" style="rounded=0;whiteSpace=wrap;html=1;" vertex="1" parent="1">
          <mxGeometry x="160" y="880" width="80" height="30" as="geometry" />
        </mxCell>
        <mxCell id="G-p-I15hFAaldeLtPEmq-69" style="edgeStyle=none;rounded=0;orthogonalLoop=1;jettySize=auto;html=1;exitX=1;exitY=0.5;exitDx=0;exitDy=0;entryX=0;entryY=0.5;entryDx=0;entryDy=0;" edge="1" parent="1" source="G-p-I15hFAaldeLtPEmq-2" target="G-p-I15hFAaldeLtPEmq-60">
          <mxGeometry relative="1" as="geometry" />
        </mxCell>
        <mxCell id="G-p-I15hFAaldeLtPEmq-70" style="edgeStyle=none;rounded=0;orthogonalLoop=1;jettySize=auto;html=1;exitX=1;exitY=0.5;exitDx=0;exitDy=0;entryX=0;entryY=0.5;entryDx=0;entryDy=0;" edge="1" parent="1" source="G-p-I15hFAaldeLtPEmq-2" target="G-p-I15hFAaldeLtPEmq-66">
          <mxGeometry relative="1" as="geometry" />
        </mxCell>
        <mxCell id="G-p-I15hFAaldeLtPEmq-71" style="edgeStyle=none;rounded=0;orthogonalLoop=1;jettySize=auto;html=1;exitX=1;exitY=0.5;exitDx=0;exitDy=0;entryX=0;entryY=0.5;entryDx=0;entryDy=0;" edge="1" parent="1" source="G-p-I15hFAaldeLtPEmq-2" target="G-p-I15hFAaldeLtPEmq-61">
          <mxGeometry relative="1" as="geometry" />
        </mxCell>
        <mxCell id="G-p-I15hFAaldeLtPEmq-72" style="edgeStyle=none;rounded=0;orthogonalLoop=1;jettySize=auto;html=1;exitX=1;exitY=0.5;exitDx=0;exitDy=0;entryX=0;entryY=0.5;entryDx=0;entryDy=0;" edge="1" parent="1" source="G-p-I15hFAaldeLtPEmq-2" target="G-p-I15hFAaldeLtPEmq-62">
          <mxGeometry relative="1" as="geometry" />
        </mxCell>
        <mxCell id="G-p-I15hFAaldeLtPEmq-73" style="edgeStyle=none;rounded=0;orthogonalLoop=1;jettySize=auto;html=1;exitX=1;exitY=0.5;exitDx=0;exitDy=0;entryX=0;entryY=0.5;entryDx=0;entryDy=0;" edge="1" parent="1" source="G-p-I15hFAaldeLtPEmq-2" target="G-p-I15hFAaldeLtPEmq-63">
          <mxGeometry relative="1" as="geometry" />
        </mxCell>
        <mxCell id="G-p-I15hFAaldeLtPEmq-74" style="edgeStyle=none;rounded=0;orthogonalLoop=1;jettySize=auto;html=1;exitX=1;exitY=0.5;exitDx=0;exitDy=0;entryX=0;entryY=0.5;entryDx=0;entryDy=0;" edge="1" parent="1" source="G-p-I15hFAaldeLtPEmq-2" target="G-p-I15hFAaldeLtPEmq-64">
          <mxGeometry relative="1" as="geometry" />
        </mxCell>
        <mxCell id="G-p-I15hFAaldeLtPEmq-75" style="edgeStyle=none;rounded=0;orthogonalLoop=1;jettySize=auto;html=1;exitX=1;exitY=0.5;exitDx=0;exitDy=0;entryX=0;entryY=0.5;entryDx=0;entryDy=0;" edge="1" parent="1" source="G-p-I15hFAaldeLtPEmq-2" target="G-p-I15hFAaldeLtPEmq-65">
          <mxGeometry relative="1" as="geometry" />
        </mxCell>
        <mxCell id="G-p-I15hFAaldeLtPEmq-76" style="edgeStyle=none;rounded=0;orthogonalLoop=1;jettySize=auto;html=1;exitX=1;exitY=0.5;exitDx=0;exitDy=0;entryX=0;entryY=0.5;entryDx=0;entryDy=0;" edge="1" parent="1" source="G-p-I15hFAaldeLtPEmq-2" target="G-p-I15hFAaldeLtPEmq-67">
          <mxGeometry relative="1" as="geometry" />
        </mxCell>
        <mxCell id="G-p-I15hFAaldeLtPEmq-2" value="商户" style="rounded=0;whiteSpace=wrap;html=1;" vertex="1" parent="1">
          <mxGeometry x="760" y="860" width="80" height="30" as="geometry" />
        </mxCell>
        <mxCell id="G-p-I15hFAaldeLtPEmq-81" style="edgeStyle=none;rounded=0;orthogonalLoop=1;jettySize=auto;html=1;exitX=1;exitY=0.5;exitDx=0;exitDy=0;entryX=0;entryY=0.5;entryDx=0;entryDy=0;" edge="1" parent="1" source="G-p-I15hFAaldeLtPEmq-3" target="G-p-I15hFAaldeLtPEmq-77">
          <mxGeometry relative="1" as="geometry" />
        </mxCell>
        <mxCell id="G-p-I15hFAaldeLtPEmq-82" style="edgeStyle=none;rounded=0;orthogonalLoop=1;jettySize=auto;html=1;exitX=1;exitY=0.5;exitDx=0;exitDy=0;entryX=0;entryY=0.5;entryDx=0;entryDy=0;" edge="1" parent="1" source="G-p-I15hFAaldeLtPEmq-3" target="G-p-I15hFAaldeLtPEmq-78">
          <mxGeometry relative="1" as="geometry" />
        </mxCell>
        <mxCell id="G-p-I15hFAaldeLtPEmq-83" style="edgeStyle=none;rounded=0;orthogonalLoop=1;jettySize=auto;html=1;exitX=1;exitY=0.5;exitDx=0;exitDy=0;entryX=0;entryY=0.5;entryDx=0;entryDy=0;" edge="1" parent="1" source="G-p-I15hFAaldeLtPEmq-3" target="G-p-I15hFAaldeLtPEmq-79">
          <mxGeometry relative="1" as="geometry" />
        </mxCell>
        <mxCell id="G-p-I15hFAaldeLtPEmq-3" value="微信用户" style="rounded=0;whiteSpace=wrap;html=1;" vertex="1" parent="1">
          <mxGeometry x="140" y="1350" width="80" height="30" as="geometry" />
        </mxCell>
        <mxCell id="G-p-I15hFAaldeLtPEmq-4" value="门店" style="rounded=0;whiteSpace=wrap;html=1;" vertex="1" parent="1">
          <mxGeometry x="320" y="20" width="80" height="30" as="geometry" />
        </mxCell>
        <mxCell id="G-p-I15hFAaldeLtPEmq-5" value="订单" style="rounded=0;whiteSpace=wrap;html=1;" vertex="1" parent="1">
          <mxGeometry x="420" y="20" width="80" height="30" as="geometry" />
        </mxCell>
        <mxCell id="G-p-I15hFAaldeLtPEmq-6" value="提现记录" style="rounded=0;whiteSpace=wrap;html=1;" vertex="1" parent="1">
          <mxGeometry x="20" y="60" width="80" height="30" as="geometry" />
        </mxCell>
        <mxCell id="G-p-I15hFAaldeLtPEmq-7" value="转账记录" style="rounded=0;whiteSpace=wrap;html=1;" vertex="1" parent="1">
          <mxGeometry x="120" y="60" width="80" height="30" as="geometry" />
        </mxCell>
        <mxCell id="G-p-I15hFAaldeLtPEmq-8" value="门店商品信息" style="rounded=0;whiteSpace=wrap;html=1;" vertex="1" parent="1">
          <mxGeometry x="220" y="60" width="80" height="30" as="geometry" />
        </mxCell>
        <mxCell id="G-p-I15hFAaldeLtPEmq-9" value="退款记录" style="rounded=0;whiteSpace=wrap;html=1;" vertex="1" parent="1">
          <mxGeometry x="320" y="60" width="80" height="30" as="geometry" />
        </mxCell>
        <mxCell id="G-p-I15hFAaldeLtPEmq-10" value="充值记录" style="rounded=0;whiteSpace=wrap;html=1;" vertex="1" parent="1">
          <mxGeometry x="420" y="60" width="80" height="30" as="geometry" />
        </mxCell>
        <mxCell id="G-p-I15hFAaldeLtPEmq-11" value="充值套餐" style="rounded=0;whiteSpace=wrap;html=1;" vertex="1" parent="1">
          <mxGeometry x="20" y="110" width="80" height="30" as="geometry" />
        </mxCell>
        <mxCell id="G-p-I15hFAaldeLtPEmq-12" value="平台商品" style="rounded=0;whiteSpace=wrap;html=1;" vertex="1" parent="1">
          <mxGeometry x="120" y="110" width="80" height="30" as="geometry" />
        </mxCell>
        <mxCell id="G-p-I15hFAaldeLtPEmq-13" value="支付记录" style="rounded=0;whiteSpace=wrap;html=1;" vertex="1" parent="1">
          <mxGeometry x="220" y="110" width="80" height="30" as="geometry" />
        </mxCell>
        <mxCell id="G-p-I15hFAaldeLtPEmq-14" value="商品分类" style="rounded=0;whiteSpace=wrap;html=1;" vertex="1" parent="1">
          <mxGeometry x="320" y="110" width="80" height="30" as="geometry" />
        </mxCell>
        <mxCell id="G-p-I15hFAaldeLtPEmq-15" value="反馈信息" style="rounded=0;whiteSpace=wrap;html=1;" vertex="1" parent="1">
          <mxGeometry x="420" y="110" width="80" height="30" as="geometry" />
        </mxCell>
        <mxCell id="G-p-I15hFAaldeLtPEmq-16" value="设备异常保修" style="rounded=0;whiteSpace=wrap;html=1;" vertex="1" parent="1">
          <mxGeometry x="20" y="160" width="80" height="30" as="geometry" />
        </mxCell>
        <mxCell id="G-p-I15hFAaldeLtPEmq-17" value="配置信息" style="rounded=0;whiteSpace=wrap;html=1;" vertex="1" parent="1">
          <mxGeometry x="120" y="160" width="80" height="30" as="geometry" />
        </mxCell>
        <mxCell id="G-p-I15hFAaldeLtPEmq-18" value="收银台设备" style="rounded=0;whiteSpace=wrap;html=1;" vertex="1" parent="1">
          <mxGeometry x="220" y="160" width="80" height="30" as="geometry" />
        </mxCell>
        <mxCell id="G-p-I15hFAaldeLtPEmq-19" value="监控设备运行记录" style="rounded=0;whiteSpace=wrap;html=1;" vertex="1" parent="1">
          <mxGeometry x="320" y="160" width="80" height="30" as="geometry" />
        </mxCell>
        <mxCell id="G-p-I15hFAaldeLtPEmq-20" value="监控设备信息" style="rounded=0;whiteSpace=wrap;html=1;" vertex="1" parent="1">
          <mxGeometry x="420" y="160" width="80" height="30" as="geometry" />
        </mxCell>
        <mxCell id="G-p-I15hFAaldeLtPEmq-21" value="商家商品" style="rounded=0;whiteSpace=wrap;html=1;" vertex="1" parent="1">
          <mxGeometry x="20" y="210" width="80" height="30" as="geometry" />
        </mxCell>
        <mxCell id="G-p-I15hFAaldeLtPEmq-23" value="账户" style="rounded=0;whiteSpace=wrap;html=1;" vertex="1" parent="1">
          <mxGeometry x="220" y="210" width="80" height="30" as="geometry" />
        </mxCell>
        <mxCell id="G-p-I15hFAaldeLtPEmq-24" value="门禁进出记录" style="rounded=0;whiteSpace=wrap;html=1;" vertex="1" parent="1">
          <mxGeometry x="320" y="210" width="80" height="30" as="geometry" />
        </mxCell>
        <mxCell id="G-p-I15hFAaldeLtPEmq-25" value="门禁设备信息" style="rounded=0;whiteSpace=wrap;html=1;" vertex="1" parent="1">
          <mxGeometry x="420" y="210" width="80" height="30" as="geometry" />
        </mxCell>
        <mxCell id="G-p-I15hFAaldeLtPEmq-28" value="门禁设备信息" style="rounded=0;whiteSpace=wrap;html=1;" vertex="1" parent="1">
          <mxGeometry x="120" y="210" width="80" height="30" as="geometry" />
        </mxCell>
        <mxCell id="G-p-I15hFAaldeLtPEmq-29" value="管理员操作日记" style="rounded=0;whiteSpace=wrap;html=1;" vertex="1" parent="1">
          <mxGeometry x="20" y="260" width="80" height="30" as="geometry" />
        </mxCell>
        <mxCell id="G-p-I15hFAaldeLtPEmq-30" value="通知公告" style="rounded=0;whiteSpace=wrap;html=1;" vertex="1" parent="1">
          <mxGeometry x="120" y="260" width="80" height="30" as="geometry" />
        </mxCell>
        <mxCell id="G-p-I15hFAaldeLtPEmq-31" value="账号" style="ellipse;whiteSpace=wrap;html=1;" vertex="1" parent="1">
          <mxGeometry x="380" y="702.5" width="50" height="27.5" as="geometry" />
        </mxCell>
        <mxCell id="G-p-I15hFAaldeLtPEmq-33" value="公共信息：ID、逻辑删除、创建时间、更新时间" style="rounded=0;whiteSpace=wrap;html=1;" vertex="1" parent="1">
          <mxGeometry x="990" y="195" width="250" height="315" as="geometry" />
        </mxCell>
        <mxCell id="G-p-I15hFAaldeLtPEmq-34" value="密码" style="ellipse;whiteSpace=wrap;html=1;" vertex="1" parent="1">
          <mxGeometry x="380" y="730" width="50" height="30" as="geometry" />
        </mxCell>
        <mxCell id="G-p-I15hFAaldeLtPEmq-35" value="类型" style="ellipse;whiteSpace=wrap;html=1;" vertex="1" parent="1">
          <mxGeometry x="380" y="760" width="50" height="30" as="geometry" />
        </mxCell>
        <mxCell id="G-p-I15hFAaldeLtPEmq-36" value="邮箱" style="ellipse;whiteSpace=wrap;html=1;" vertex="1" parent="1">
          <mxGeometry x="380" y="790" width="52" height="30" as="geometry" />
        </mxCell>
        <mxCell id="G-p-I15hFAaldeLtPEmq-37" value="手机号码" style="ellipse;whiteSpace=wrap;html=1;" vertex="1" parent="1">
          <mxGeometry x="378" y="820" width="60" height="30" as="geometry" />
        </mxCell>
        <mxCell id="G-p-I15hFAaldeLtPEmq-38" value="用户性别" style="ellipse;whiteSpace=wrap;html=1;" vertex="1" parent="1">
          <mxGeometry x="376" y="850" width="60" height="30" as="geometry" />
        </mxCell>
        <mxCell id="G-p-I15hFAaldeLtPEmq-40" value="头像地址" style="ellipse;whiteSpace=wrap;html=1;" vertex="1" parent="1">
          <mxGeometry x="375" y="880" width="60" height="35" as="geometry" />
        </mxCell>
        <mxCell id="G-p-I15hFAaldeLtPEmq-41" value="昵称" style="ellipse;whiteSpace=wrap;html=1;" vertex="1" parent="1">
          <mxGeometry x="381" y="915" width="50" height="25" as="geometry" />
        </mxCell>
        <mxCell id="G-p-I15hFAaldeLtPEmq-42" value="状态" style="ellipse;whiteSpace=wrap;html=1;" vertex="1" parent="1">
          <mxGeometry x="383.5" y="940" width="49" height="30" as="geometry" />
        </mxCell>
        <mxCell id="G-p-I15hFAaldeLtPEmq-43" value="登录IP" style="ellipse;whiteSpace=wrap;html=1;" vertex="1" parent="1">
          <mxGeometry x="380" y="970" width="50" height="25" as="geometry" />
        </mxCell>
        <mxCell id="G-p-I15hFAaldeLtPEmq-44" value="创建者" style="ellipse;whiteSpace=wrap;html=1;" vertex="1" parent="1">
          <mxGeometry x="380" y="672.5" width="50" height="30" as="geometry" />
        </mxCell>
        <mxCell id="G-p-I15hFAaldeLtPEmq-45" value="更新者" style="ellipse;whiteSpace=wrap;html=1;" vertex="1" parent="1">
          <mxGeometry x="380" y="642.5" width="50" height="30" as="geometry" />
        </mxCell>
        <mxCell id="G-p-I15hFAaldeLtPEmq-60" value="密码" style="ellipse;whiteSpace=wrap;html=1;" vertex="1" parent="1">
          <mxGeometry x="910" y="702.5" width="50" height="30" as="geometry" />
        </mxCell>
        <mxCell id="G-p-I15hFAaldeLtPEmq-61" value="名字" style="ellipse;whiteSpace=wrap;html=1;" vertex="1" parent="1">
          <mxGeometry x="910" y="740" width="50" height="30" as="geometry" />
        </mxCell>
        <mxCell id="G-p-I15hFAaldeLtPEmq-62" value="性别" style="ellipse;whiteSpace=wrap;html=1;" vertex="1" parent="1">
          <mxGeometry x="910" y="780" width="50" height="30" as="geometry" />
        </mxCell>
        <mxCell id="G-p-I15hFAaldeLtPEmq-63" value="邮箱" style="ellipse;whiteSpace=wrap;html=1;" vertex="1" parent="1">
          <mxGeometry x="910" y="820" width="50" height="30" as="geometry" />
        </mxCell>
        <mxCell id="G-p-I15hFAaldeLtPEmq-64" value="电话号码" style="ellipse;whiteSpace=wrap;html=1;" vertex="1" parent="1">
          <mxGeometry x="910" y="860" width="50" height="30" as="geometry" />
        </mxCell>
        <mxCell id="G-p-I15hFAaldeLtPEmq-65" value="设置" style="ellipse;whiteSpace=wrap;html=1;" vertex="1" parent="1">
          <mxGeometry x="910" y="900" width="50" height="30" as="geometry" />
        </mxCell>
        <mxCell id="G-p-I15hFAaldeLtPEmq-66" value="账号" style="ellipse;whiteSpace=wrap;html=1;" vertex="1" parent="1">
          <mxGeometry x="910" y="660" width="50" height="30" as="geometry" />
        </mxCell>
        <mxCell id="G-p-I15hFAaldeLtPEmq-67" value="openId" style="ellipse;whiteSpace=wrap;html=1;" vertex="1" parent="1">
          <mxGeometry x="910" y="940" width="50" height="30" as="geometry" />
        </mxCell>
        <mxCell id="G-p-I15hFAaldeLtPEmq-77" value="openId" style="ellipse;whiteSpace=wrap;html=1;" vertex="1" parent="1">
          <mxGeometry x="280" y="1300" width="50" height="30" as="geometry" />
        </mxCell>
        <mxCell id="G-p-I15hFAaldeLtPEmq-78" value="电话号码" style="ellipse;whiteSpace=wrap;html=1;" vertex="1" parent="1">
          <mxGeometry x="280" y="1340" width="50" height="30" as="geometry" />
        </mxCell>
        <mxCell id="G-p-I15hFAaldeLtPEmq-79" value="性别" style="ellipse;whiteSpace=wrap;html=1;" vertex="1" parent="1">
          <mxGeometry x="280" y="1380" width="50" height="30" as="geometry" />
        </mxCell>
      </root>
    </mxGraphModel>
  </diagram>
</mxfile>
